<svg width="149" height="60" viewBox="0 0 149 60" fill="none"
    xmlns="http://www.w3.org/2000/svg">
    <g clip-path="url(#clip0_292_4606)">
        <path d="M147.242 45.764L139.557 45.7519L140.836 40.6359L125.443 40.6116L124.17 45.7276L116.733 45.7154V44.6643C116.853 44.0871 116.95 43.4855 117.094 42.8354C118.458 37.3185 122.059 31.8744 128.284 31.8866C130.745 31.8866 133.188 32.8405 132.85 36.2673L142.006 36.2795C142.368 34.6815 142.977 31.9534 141.258 29.444C139.31 26.7159 135.383 25.6162 130.28 25.6101C126.655 25.6101 121.347 26.1812 116.763 29.1828L116.811 1.34883L147.32 1.39744L147.248 45.7519L147.242 45.764ZM129.225 53.2314C127.481 53.5473 125.744 53.7539 124.091 53.7539C119.694 53.7478 116.636 51.682 116.582 46.882L130.793 46.9063L129.225 53.2374V53.2314ZM111.69 27.8643L111.666 34.2197C109.536 37.1726 108.209 40.405 107.588 43.0055C107.353 43.9169 107.19 44.7979 107.1 45.6972H102.618L106.478 27.3843L93.582 27.3478L82.0127 45.6547H81.1743L81.2467 1.29415L111.738 1.34276L111.696 27.8582L111.69 27.8643ZM94.6315 45.679H90.0472L97.0081 34.6754L94.6315 45.679ZM76.1497 27.2871L68.5193 27.2749L63.2534 45.6243L55.1585 45.6121C59.2844 44.081 61.7997 41.1524 62.5839 36.802C63.2293 33.4177 62.9277 31.1939 61.5645 29.523C59.5136 27.0379 55.3938 27.2445 51.7384 27.2385C51.0991 27.2385 45.6824 27.2385 45.6824 27.2385L45.7246 1.23947L76.1919 1.28807L76.1497 27.2871ZM71.2397 45.6364L74.4668 34.159L74.5633 45.6425H71.2397V45.6364ZM49.0542 41.2374H49.0422C48.7466 41.2496 48.451 41.28 48.1072 41.2739C47.6609 41.2739 47.317 41.286 46.9853 41.286L45.0309 41.2678L45.9418 37.9078L46.37 36.2369L47.4015 32.3301C47.8539 32.3301 48.3002 32.3179 48.7225 32.3179H50.2305C52.8061 32.324 54.4407 32.4759 55.0319 33.3144C55.4843 33.9402 55.424 35.0278 54.8871 36.6744C53.9642 39.5119 52.794 40.9519 49.0422 41.2374M40.5975 28.8607L40.1149 30.4526L35.7297 45.0653L35.5548 45.5817L21.1988 45.5574L20.0829 43.1757L35.5849 27.2688L25.6443 27.2506L13.5201 40.3625L17.459 27.2385L10.1241 27.2263L10.1664 1.18478L40.6337 1.23339L40.5914 28.8607H40.5975ZM115.653 0.176175L115.605 30.0273C114.567 30.8476 113.686 31.7286 112.866 32.6764L112.92 0.170099L80.0946 0.115415L80.0523 27.2931H77.3319L77.3742 0.10934L44.5484 0.054656L44.5062 27.2749H41.7918L41.834 0.04858L9.00221 -0.00610352L8.95395 31.0238L0.527344 59.1433L7.89233 59.1554L11.614 46.7058H12.6757L18.7619 59.1736L27.665 59.1858L21.7597 46.7179L35.211 46.7423L31.4591 59.1919L39.5117 59.204L43.2153 46.7848H44.9827V46.7544H47.5161H47.7151L62.9036 46.7787L59.3266 59.1919L67.4456 59.204L70.9079 46.7909H74.5572L74.6357 59.2162L81.4457 59.2283L89.2812 46.8212H94.3963L91.7362 59.2466L99.7285 59.2587L102.34 46.8395H106.961C106.774 50.6977 107.745 54.1974 110.272 56.5549C113.367 59.4288 118.12 59.9817 121.636 59.9878C126.45 59.9939 131.45 59.3073 136.481 58.1772L139.268 46.9002L148.388 46.9124L148.466 0.212631L115.641 0.157947L115.653 0.176175Z" fill="white"/>
    </g>
    <defs>
        <clipPath id="clip0_292_4606">
            <rect width="147.945" height="60" fill="white" transform="translate(0.527344)"/>
        </clipPath>
    </defs>
</svg>
