<svg width="71" height="71" viewBox="0 0 71 71" fill="none"
    xmlns="http://www.w3.org/2000/svg">
    <rect x="0.940918" y="0.983398" width="70" height="70" rx="35" fill="#1E49E2"/>
    <path d="M28.6493 41.8168H38.8576V44.7335H28.6493V41.8168ZM28.6493 35.9835H43.2326V38.9001H28.6493V35.9835ZM28.6493 30.1501H43.2326V33.0668H28.6493V30.1501ZM46.1493 24.3168H40.0534C39.4409 22.6251 37.8368 21.4001 35.9409 21.4001C34.0451 21.4001 32.4409 22.6251 31.8284 24.3168H25.7326C25.5284 24.3168 25.3388 24.3314 25.1493 24.3751C24.5805 24.4918 24.0701 24.7835 23.6763 25.1772C23.4138 25.4397 23.1951 25.7606 23.0493 26.1106C22.9034 26.446 22.8159 26.8251 22.8159 27.2335V47.6501C22.8159 48.0439 22.9034 48.4376 23.0493 48.7876C23.1951 49.1376 23.4138 49.4439 23.6763 49.721C24.0701 50.1147 24.5805 50.4064 25.1493 50.5231C25.3388 50.5522 25.5284 50.5668 25.7326 50.5668H46.1493C47.7534 50.5668 49.0659 49.2543 49.0659 47.6501V27.2335C49.0659 25.6293 47.7534 24.3168 46.1493 24.3168ZM35.9409 23.9522C36.5388 23.9522 37.0347 24.4481 37.0347 25.046C37.0347 25.6439 36.5388 26.1397 35.9409 26.1397C35.343 26.1397 34.8472 25.6439 34.8472 25.046C34.8472 24.4481 35.343 23.9522 35.9409 23.9522ZM46.1493 47.6501H25.7326V27.2335H46.1493V47.6501Z" fill="white"/>
</svg>
